<svg width="20" height="20" viewBox="0 0 20 20" fill="none" xmlns="http://www.w3.org/2000/svg">
<path fill-rule="evenodd" clip-rule="evenodd" d="M4.9987 4.50049C3.80208 4.50049 2.83203 5.47054 2.83203 6.66716V13.3338C2.83203 14.5304 3.80208 15.5005 4.9987 15.5005H14.9987C16.1953 15.5005 17.1654 14.5304 17.1654 13.3338V6.66715C17.1654 5.47054 16.1953 4.50049 14.9987 4.50049H4.9987ZM4.11836 5.90155C4.33225 5.65581 4.64733 5.50049 4.9987 5.50049H14.9987C15.3501 5.50049 15.6652 5.65583 15.8791 5.90158L9.99873 10.2138L4.11836 5.90155ZM3.83203 6.93164V13.3338C3.83203 13.9782 4.35437 14.5005 4.9987 14.5005H14.9987C15.643 14.5005 16.1654 13.9782 16.1654 13.3338V6.93169L10.2944 11.2371C10.1184 11.3661 9.87905 11.3661 9.70305 11.2371L3.83203 6.93164Z" fill="#3A7CFD"/>
</svg>
