<svg width="16" height="16" viewBox="0 0 16 16" fill="none" xmlns="http://www.w3.org/2000/svg">
<path fill-rule="evenodd" clip-rule="evenodd" d="M3.50065 5.3335C3.50065 2.84821 5.51537 0.833496 8.00065 0.833496C10.4859 0.833496 12.5007 2.84821 12.5007 5.3335C12.5007 6.89304 11.6287 8.01624 10.7363 8.94571C10.521 9.17 10.2989 9.38839 10.0842 9.59954L10.0563 9.62695C9.83103 9.84855 9.61435 10.0623 9.41023 10.2774C8.9999 10.7098 8.66486 11.1231 8.44787 11.5571C8.36317 11.7265 8.19004 11.8335 8.00065 11.8335C7.81127 11.8335 7.63813 11.7265 7.55344 11.5571C7.33645 11.1231 7.00141 10.7098 6.59108 10.2774C6.38696 10.0623 6.17027 9.84855 5.94496 9.62695L5.91711 9.59955C5.7024 9.3884 5.48032 9.17 5.26498 8.94571C4.37258 8.01624 3.50065 6.89304 3.50065 5.3335ZM8.00065 5.16683C7.9086 5.16683 7.83399 5.24145 7.83399 5.3335C7.83399 5.42554 7.9086 5.50016 8.00065 5.50016C8.0927 5.50016 8.16732 5.42554 8.16732 5.3335C8.16732 5.24145 8.0927 5.16683 8.00065 5.16683ZM6.83399 5.3335C6.83399 4.68916 7.35632 4.16683 8.00065 4.16683C8.64498 4.16683 9.16732 4.68916 9.16732 5.3335C9.16732 5.97783 8.64498 6.50016 8.00065 6.50016C7.35632 6.50016 6.83399 5.97783 6.83399 5.3335ZM3.79145 9.32259C3.9029 9.57524 3.78844 9.87041 3.53579 9.98187C2.95728 10.2371 2.51944 10.5297 2.23304 10.8301C1.94909 11.128 1.83398 11.41 1.83398 11.6668C1.83398 12.1759 2.31666 12.8034 3.49179 13.3322C4.61999 13.8399 6.21366 14.1668 8.00065 14.1668C9.78764 14.1668 11.3813 13.8399 12.5095 13.3322C13.6846 12.8034 14.1673 12.1759 14.1673 11.6668C14.1673 11.41 14.0522 11.128 13.7683 10.8301C13.4819 10.5297 13.044 10.2371 12.4655 9.98187C12.2129 9.87041 12.0984 9.57524 12.2099 9.32259C12.3213 9.06994 12.6165 8.95548 12.8691 9.06694C13.5249 9.35621 14.087 9.71521 14.4921 10.1401C14.8995 10.5675 15.1673 11.0845 15.1673 11.6668C15.1673 12.8146 14.1576 13.6871 12.9199 14.2441C11.6352 14.8222 9.89556 15.1668 8.00065 15.1668C6.10574 15.1668 4.36609 14.8222 3.08142 14.2441C1.8437 13.6871 0.833984 12.8146 0.833984 11.6668C0.833984 11.0845 1.10176 10.5675 1.50925 10.1401C1.91429 9.71521 2.47645 9.35621 3.13218 9.06694C3.38483 8.95548 3.67999 9.06994 3.79145 9.32259Z" fill="#C8CBE7"/>
</svg>
