<svg width="16" height="16" viewBox="0 0 16 16" fill="none" xmlns="http://www.w3.org/2000/svg">
<path d="M4.75361 11.2149C6.98789 13.4456 9.70921 15.1668 11.928 15.1668C12.9253 15.1668 13.7989 14.8195 14.5024 14.0477C14.9121 13.5923 15.1673 13.0597 15.1673 12.5348C15.1673 12.1489 15.0204 11.7784 14.6493 11.516L12.2836 9.83332C11.9203 9.58632 11.6188 9.46283 11.3405 9.46283C10.9848 9.46283 10.6756 9.66352 10.3199 10.0109L9.77103 10.5511C9.68599 10.636 9.57776 10.6746 9.47726 10.6746C9.35356 10.6746 9.24533 10.6283 9.1603 10.5897C8.6887 10.335 7.8692 9.63266 7.10384 8.87623C6.34619 8.11981 5.64267 7.30163 5.39528 6.82309C5.3489 6.73819 5.31024 6.63011 5.31024 6.51435C5.31024 6.414 5.34118 6.31366 5.42622 6.22876L5.96738 5.66532C6.31528 5.31024 6.51626 5.0015 6.51626 4.64645C6.51626 4.3686 6.3926 4.06756 6.13746 3.70481L4.47527 1.36608C4.20469 0.99559 3.82589 0.833496 3.40842 0.833496C2.89816 0.833496 2.36472 1.06504 1.91631 1.50502C1.16641 2.22285 0.833984 3.11048 0.833984 4.09072C0.833984 6.30595 2.52707 8.99199 4.75361 11.2149Z" fill="#C8CBE7"/>
</svg>
